<mxfile host="app.diagrams.net" modified="2023-03-29T19:14:04.625Z" agent="Mozilla/5.0 (Windows NT 10.0; Win64; x64) AppleWebKit/537.36 (KHTML, like Gecko) Chrome/111.0.0.0 Safari/537.36" etag="eea0ik5swHIjiVfY6GPZ" version="21.1.2" type="device">
  <diagram name="Página-1" id="gJcQvms7UVGi1R69P0_R">
    <mxGraphModel dx="880" dy="494" grid="1" gridSize="10" guides="1" tooltips="1" connect="1" arrows="1" fold="1" page="1" pageScale="1" pageWidth="827" pageHeight="1169" math="0" shadow="0">
      <root>
        <mxCell id="0" />
        <mxCell id="1" parent="0" />
        <mxCell id="dTQ3H1zVppD5qd-FwWcg-1" value="Diretora" style="shape=umlActor;verticalLabelPosition=bottom;verticalAlign=top;html=1;outlineConnect=0;" parent="1" vertex="1">
          <mxGeometry x="100" y="110" width="30" height="60" as="geometry" />
        </mxCell>
        <mxCell id="dTQ3H1zVppD5qd-FwWcg-3" value="Cliente" style="shape=umlActor;verticalLabelPosition=bottom;verticalAlign=top;html=1;outlineConnect=0;" parent="1" vertex="1">
          <mxGeometry x="100" y="230" width="30" height="60" as="geometry" />
        </mxCell>
        <mxCell id="dTQ3H1zVppD5qd-FwWcg-4" value="RH" style="shape=umlActor;verticalLabelPosition=bottom;verticalAlign=top;html=1;outlineConnect=0;" parent="1" vertex="1">
          <mxGeometry x="100" y="350" width="30" height="60" as="geometry" />
        </mxCell>
        <mxCell id="dTQ3H1zVppD5qd-FwWcg-6" value="Psicólogo" style="shape=umlActor;verticalLabelPosition=bottom;verticalAlign=top;html=1;outlineConnect=0;" parent="1" vertex="1">
          <mxGeometry x="120" y="465" width="30" height="60" as="geometry" />
        </mxCell>
        <mxCell id="dTQ3H1zVppD5qd-FwWcg-7" value="Sistema" style="shape=umlActor;verticalLabelPosition=bottom;verticalAlign=top;html=1;outlineConnect=0;" parent="1" vertex="1">
          <mxGeometry x="220" y="780" width="30" height="60" as="geometry" />
        </mxCell>
        <mxCell id="dTQ3H1zVppD5qd-FwWcg-8" value="" style="rounded=0;whiteSpace=wrap;html=1;" parent="1" vertex="1">
          <mxGeometry x="300" y="60" width="560" height="870" as="geometry" />
        </mxCell>
        <mxCell id="dTQ3H1zVppD5qd-FwWcg-9" value="Tomar decisões" style="ellipse;whiteSpace=wrap;html=1;" parent="1" vertex="1">
          <mxGeometry x="350" y="100" width="110" height="70" as="geometry" />
        </mxCell>
        <mxCell id="dTQ3H1zVppD5qd-FwWcg-10" value="Visualizar relatórios" style="ellipse;whiteSpace=wrap;html=1;" parent="1" vertex="1">
          <mxGeometry x="500" y="95" width="120" height="75" as="geometry" />
        </mxCell>
        <mxCell id="dTQ3H1zVppD5qd-FwWcg-11" value="Receber notificações" style="ellipse;whiteSpace=wrap;html=1;" parent="1" vertex="1">
          <mxGeometry x="660" y="92.5" width="120" height="80" as="geometry" />
        </mxCell>
        <mxCell id="dTQ3H1zVppD5qd-FwWcg-12" value="" style="curved=1;endArrow=classic;html=1;rounded=0;exitX=0.75;exitY=0.1;exitDx=0;exitDy=0;exitPerimeter=0;entryX=0.5;entryY=0;entryDx=0;entryDy=0;" parent="1" source="dTQ3H1zVppD5qd-FwWcg-1" target="dTQ3H1zVppD5qd-FwWcg-9" edge="1">
          <mxGeometry width="50" height="50" relative="1" as="geometry">
            <mxPoint x="390" y="260" as="sourcePoint" />
            <mxPoint x="440" y="210" as="targetPoint" />
            <Array as="points">
              <mxPoint x="190" y="50" />
              <mxPoint x="310" y="40" />
            </Array>
          </mxGeometry>
        </mxCell>
        <mxCell id="dTQ3H1zVppD5qd-FwWcg-13" value="" style="curved=1;endArrow=classic;html=1;rounded=0;entryX=0.5;entryY=0;entryDx=0;entryDy=0;exitX=0.75;exitY=0.1;exitDx=0;exitDy=0;exitPerimeter=0;" parent="1" source="dTQ3H1zVppD5qd-FwWcg-1" target="dTQ3H1zVppD5qd-FwWcg-10" edge="1">
          <mxGeometry width="50" height="50" relative="1" as="geometry">
            <mxPoint x="130" y="190" as="sourcePoint" />
            <mxPoint x="200.71067811865476" y="140" as="targetPoint" />
            <Array as="points">
              <mxPoint x="450" y="-10" />
            </Array>
          </mxGeometry>
        </mxCell>
        <mxCell id="dTQ3H1zVppD5qd-FwWcg-14" value="" style="curved=1;endArrow=classic;html=1;rounded=0;exitX=0.75;exitY=0.1;exitDx=0;exitDy=0;exitPerimeter=0;entryX=0.5;entryY=0;entryDx=0;entryDy=0;" parent="1" source="dTQ3H1zVppD5qd-FwWcg-1" target="dTQ3H1zVppD5qd-FwWcg-11" edge="1">
          <mxGeometry width="50" height="50" relative="1" as="geometry">
            <mxPoint x="130" y="190" as="sourcePoint" />
            <mxPoint x="200.71067811865476" y="140" as="targetPoint" />
            <Array as="points">
              <mxPoint x="440" y="-50" />
            </Array>
          </mxGeometry>
        </mxCell>
        <mxCell id="dTQ3H1zVppD5qd-FwWcg-15" value="Avaliar serviços" style="ellipse;whiteSpace=wrap;html=1;" parent="1" vertex="1">
          <mxGeometry x="350" y="220" width="100" height="70" as="geometry" />
        </mxCell>
        <mxCell id="dTQ3H1zVppD5qd-FwWcg-16" value="" style="curved=1;endArrow=classic;html=1;rounded=0;exitX=0.5;exitY=0.5;exitDx=0;exitDy=0;exitPerimeter=0;entryX=0;entryY=0.5;entryDx=0;entryDy=0;" parent="1" source="dTQ3H1zVppD5qd-FwWcg-3" target="dTQ3H1zVppD5qd-FwWcg-15" edge="1">
          <mxGeometry width="50" height="50" relative="1" as="geometry">
            <mxPoint x="180" y="285" as="sourcePoint" />
            <mxPoint x="230" y="235" as="targetPoint" />
            <Array as="points">
              <mxPoint x="230" y="285" />
              <mxPoint x="180" y="235" />
            </Array>
          </mxGeometry>
        </mxCell>
        <mxCell id="dTQ3H1zVppD5qd-FwWcg-17" value="Validar avaliações" style="ellipse;whiteSpace=wrap;html=1;" parent="1" vertex="1">
          <mxGeometry x="345" y="340" width="95" height="60" as="geometry" />
        </mxCell>
        <mxCell id="dTQ3H1zVppD5qd-FwWcg-18" value="Enviar relatórios a Diretora" style="ellipse;whiteSpace=wrap;html=1;" parent="1" vertex="1">
          <mxGeometry x="490" y="320" width="120" height="80" as="geometry" />
        </mxCell>
        <mxCell id="dTQ3H1zVppD5qd-FwWcg-19" value="" style="curved=1;endArrow=classic;html=1;rounded=0;exitX=0.75;exitY=0.1;exitDx=0;exitDy=0;exitPerimeter=0;entryX=0.5;entryY=0;entryDx=0;entryDy=0;" parent="1" source="dTQ3H1zVppD5qd-FwWcg-4" target="dTQ3H1zVppD5qd-FwWcg-18" edge="1">
          <mxGeometry width="50" height="50" relative="1" as="geometry">
            <mxPoint x="390" y="300" as="sourcePoint" />
            <mxPoint x="440" y="250" as="targetPoint" />
            <Array as="points">
              <mxPoint x="400" y="320" />
              <mxPoint x="420" y="300" />
              <mxPoint x="450" y="300" />
              <mxPoint x="460" y="280" />
            </Array>
          </mxGeometry>
        </mxCell>
        <mxCell id="dTQ3H1zVppD5qd-FwWcg-21" value="" style="curved=1;endArrow=classic;html=1;rounded=0;entryX=0;entryY=0.5;entryDx=0;entryDy=0;exitX=0.75;exitY=0.1;exitDx=0;exitDy=0;exitPerimeter=0;" parent="1" source="dTQ3H1zVppD5qd-FwWcg-4" target="dTQ3H1zVppD5qd-FwWcg-17" edge="1">
          <mxGeometry width="50" height="50" relative="1" as="geometry">
            <mxPoint x="130" y="430" as="sourcePoint" />
            <mxPoint x="200.71067811865476" y="380" as="targetPoint" />
            <Array as="points">
              <mxPoint x="240" y="400" />
            </Array>
          </mxGeometry>
        </mxCell>
        <mxCell id="dTQ3H1zVppD5qd-FwWcg-22" value="Receber avaliações" style="ellipse;whiteSpace=wrap;html=1;" parent="1" vertex="1">
          <mxGeometry x="660" y="320" width="110" height="60" as="geometry" />
        </mxCell>
        <mxCell id="dTQ3H1zVppD5qd-FwWcg-23" value="" style="curved=1;endArrow=classic;html=1;rounded=0;entryX=0;entryY=0.5;entryDx=0;entryDy=0;" parent="1" target="dTQ3H1zVppD5qd-FwWcg-22" edge="1">
          <mxGeometry width="50" height="50" relative="1" as="geometry">
            <mxPoint x="130" y="360" as="sourcePoint" />
            <mxPoint x="200.71067811865476" y="380" as="targetPoint" />
            <Array as="points">
              <mxPoint x="520" y="530" />
            </Array>
          </mxGeometry>
        </mxCell>
        <mxCell id="dTQ3H1zVppD5qd-FwWcg-25" value="Psiquiatra" style="shape=umlActor;verticalLabelPosition=bottom;verticalAlign=top;html=1;outlineConnect=0;" parent="1" vertex="1">
          <mxGeometry x="90" y="570" width="30" height="60" as="geometry" />
        </mxCell>
        <mxCell id="dTQ3H1zVppD5qd-FwWcg-26" value="Secretária" style="shape=umlActor;verticalLabelPosition=bottom;verticalAlign=top;html=1;outlineConnect=0;" parent="1" vertex="1">
          <mxGeometry x="150" y="640" width="30" height="60" as="geometry" />
        </mxCell>
        <mxCell id="dTQ3H1zVppD5qd-FwWcg-28" value="Avaliar limpeza" style="ellipse;whiteSpace=wrap;html=1;aspect=fixed;" parent="1" vertex="1">
          <mxGeometry x="490" y="530" width="60" height="60" as="geometry" />
        </mxCell>
        <mxCell id="dTQ3H1zVppD5qd-FwWcg-29" value="" style="curved=1;endArrow=classic;html=1;rounded=0;entryX=0.5;entryY=0;entryDx=0;entryDy=0;exitX=0.5;exitY=0;exitDx=0;exitDy=0;exitPerimeter=0;" parent="1" source="dTQ3H1zVppD5qd-FwWcg-6" target="dTQ3H1zVppD5qd-FwWcg-28" edge="1">
          <mxGeometry width="50" height="50" relative="1" as="geometry">
            <mxPoint x="60" y="540" as="sourcePoint" />
            <mxPoint x="130.71067811865476" y="490" as="targetPoint" />
            <Array as="points">
              <mxPoint x="220" y="390" />
            </Array>
          </mxGeometry>
        </mxCell>
        <mxCell id="dTQ3H1zVppD5qd-FwWcg-30" value="" style="curved=1;endArrow=classic;html=1;rounded=0;exitX=0.75;exitY=0.1;exitDx=0;exitDy=0;exitPerimeter=0;" parent="1" source="dTQ3H1zVppD5qd-FwWcg-25" target="dTQ3H1zVppD5qd-FwWcg-28" edge="1">
          <mxGeometry width="50" height="50" relative="1" as="geometry">
            <mxPoint x="120" y="570" as="sourcePoint" />
            <mxPoint x="190.71067811865476" y="520" as="targetPoint" />
            <Array as="points">
              <mxPoint x="300" y="670" />
            </Array>
          </mxGeometry>
        </mxCell>
        <mxCell id="dTQ3H1zVppD5qd-FwWcg-31" value="" style="curved=1;endArrow=classic;html=1;rounded=0;exitX=0.75;exitY=0.1;exitDx=0;exitDy=0;exitPerimeter=0;" parent="1" source="dTQ3H1zVppD5qd-FwWcg-26" target="dTQ3H1zVppD5qd-FwWcg-28" edge="1">
          <mxGeometry width="50" height="50" relative="1" as="geometry">
            <mxPoint x="180" y="590" as="sourcePoint" />
            <mxPoint x="250.71067811865476" y="540" as="targetPoint" />
            <Array as="points">
              <mxPoint x="450" y="680" />
            </Array>
          </mxGeometry>
        </mxCell>
        <mxCell id="dTQ3H1zVppD5qd-FwWcg-33" value="Avaliar Secretária" style="ellipse;whiteSpace=wrap;html=1;aspect=fixed;" parent="1" vertex="1">
          <mxGeometry x="330" y="530" width="70" height="70" as="geometry" />
        </mxCell>
        <mxCell id="dTQ3H1zVppD5qd-FwWcg-36" value="" style="curved=1;endArrow=classic;html=1;rounded=0;exitX=0.75;exitY=0.1;exitDx=0;exitDy=0;exitPerimeter=0;" parent="1" source="dTQ3H1zVppD5qd-FwWcg-25" target="dTQ3H1zVppD5qd-FwWcg-33" edge="1">
          <mxGeometry width="50" height="50" relative="1" as="geometry">
            <mxPoint x="120" y="635" as="sourcePoint" />
            <mxPoint x="190.71067811865476" y="585" as="targetPoint" />
            <Array as="points">
              <mxPoint x="240" y="550" />
            </Array>
          </mxGeometry>
        </mxCell>
        <mxCell id="dTQ3H1zVppD5qd-FwWcg-37" value="" style="curved=1;endArrow=classic;html=1;rounded=0;exitX=0.75;exitY=0.1;exitDx=0;exitDy=0;exitPerimeter=0;entryX=0.5;entryY=0;entryDx=0;entryDy=0;" parent="1" source="dTQ3H1zVppD5qd-FwWcg-6" target="dTQ3H1zVppD5qd-FwWcg-33" edge="1">
          <mxGeometry width="50" height="50" relative="1" as="geometry">
            <mxPoint x="60" y="540" as="sourcePoint" />
            <mxPoint x="130.71067811865476" y="490" as="targetPoint" />
            <Array as="points">
              <mxPoint x="230" y="450" />
            </Array>
          </mxGeometry>
        </mxCell>
        <mxCell id="dTQ3H1zVppD5qd-FwWcg-39" value="enviar notificações negativas" style="ellipse;whiteSpace=wrap;html=1;" parent="1" vertex="1">
          <mxGeometry x="350" y="720" width="120" height="80" as="geometry" />
        </mxCell>
        <mxCell id="dTQ3H1zVppD5qd-FwWcg-40" value="" style="curved=1;endArrow=classic;html=1;rounded=0;exitX=0.5;exitY=0;exitDx=0;exitDy=0;exitPerimeter=0;entryX=0;entryY=0.5;entryDx=0;entryDy=0;" parent="1" source="dTQ3H1zVppD5qd-FwWcg-7" target="dTQ3H1zVppD5qd-FwWcg-39" edge="1">
          <mxGeometry width="50" height="50" relative="1" as="geometry">
            <mxPoint x="250" y="860" as="sourcePoint" />
            <mxPoint x="320.71067811865476" y="810" as="targetPoint" />
            <Array as="points">
              <mxPoint x="290" y="750" />
            </Array>
          </mxGeometry>
        </mxCell>
        <mxCell id="dTQ3H1zVppD5qd-FwWcg-41" value="Emitir relatório" style="ellipse;whiteSpace=wrap;html=1;" parent="1" vertex="1">
          <mxGeometry x="390" y="840" width="120" height="80" as="geometry" />
        </mxCell>
        <mxCell id="dTQ3H1zVppD5qd-FwWcg-42" value="" style="curved=1;endArrow=classic;html=1;rounded=0;exitX=0.75;exitY=0.1;exitDx=0;exitDy=0;exitPerimeter=0;entryX=0;entryY=0.5;entryDx=0;entryDy=0;" parent="1" source="dTQ3H1zVppD5qd-FwWcg-7" target="dTQ3H1zVppD5qd-FwWcg-41" edge="1">
          <mxGeometry width="50" height="50" relative="1" as="geometry">
            <mxPoint x="250" y="860" as="sourcePoint" />
            <mxPoint x="320.71067811865476" y="810" as="targetPoint" />
            <Array as="points">
              <mxPoint x="350" y="890" />
            </Array>
          </mxGeometry>
        </mxCell>
        <mxCell id="dTQ3H1zVppD5qd-FwWcg-43" value="Limpeza" style="shape=umlActor;verticalLabelPosition=bottom;verticalAlign=top;html=1;outlineConnect=0;" parent="1" vertex="1">
          <mxGeometry x="110" y="760" width="30" height="60" as="geometry" />
        </mxCell>
        <mxCell id="dTQ3H1zVppD5qd-FwWcg-44" value="Validação de usuário" style="ellipse;whiteSpace=wrap;html=1;" parent="1" vertex="1">
          <mxGeometry x="550" y="690" width="120" height="80" as="geometry" />
        </mxCell>
        <mxCell id="dTQ3H1zVppD5qd-FwWcg-45" value="" style="curved=1;endArrow=classic;html=1;rounded=0;entryX=0.5;entryY=0;entryDx=0;entryDy=0;exitX=0.5;exitY=0;exitDx=0;exitDy=0;exitPerimeter=0;" parent="1" source="dTQ3H1zVppD5qd-FwWcg-7" target="dTQ3H1zVppD5qd-FwWcg-44" edge="1">
          <mxGeometry width="50" height="50" relative="1" as="geometry">
            <mxPoint x="235" y="759.2893218813452" as="sourcePoint" />
            <mxPoint x="235" y="709.2893218813452" as="targetPoint" />
            <Array as="points">
              <mxPoint x="390" y="660" />
            </Array>
          </mxGeometry>
        </mxCell>
        <mxCell id="dTQ3H1zVppD5qd-FwWcg-46" value="Registrar histórico de avaliações" style="ellipse;whiteSpace=wrap;html=1;" parent="1" vertex="1">
          <mxGeometry x="670" y="780" width="120" height="80" as="geometry" />
        </mxCell>
        <mxCell id="dTQ3H1zVppD5qd-FwWcg-47" value="" style="curved=1;endArrow=classic;html=1;rounded=0;entryX=0;entryY=0.5;entryDx=0;entryDy=0;exitX=0.75;exitY=0.1;exitDx=0;exitDy=0;exitPerimeter=0;" parent="1" source="dTQ3H1zVppD5qd-FwWcg-7" target="dTQ3H1zVppD5qd-FwWcg-46" edge="1">
          <mxGeometry width="50" height="50" relative="1" as="geometry">
            <mxPoint x="250" y="860" as="sourcePoint" />
            <mxPoint x="320.71067811865476" y="810" as="targetPoint" />
            <Array as="points">
              <mxPoint x="440" y="830" />
            </Array>
          </mxGeometry>
        </mxCell>
      </root>
    </mxGraphModel>
  </diagram>
</mxfile>
